HIERARCHY
ROOT mixamorig:Hips
{
	OFFSET 0.00 0.00 0.00
	CHANNELS 6 Xposition Yposition Zposition Zrotation Yrotation Xrotation
	JOINT mixamorig:Spine
	{
		OFFSET	0.0000	9.9235	-1.2273
		CHANNELS 3 Zrotation Yrotation Xrotation
		JOINT mixamorig:Spine1
		{
			OFFSET	-0.0001	11.6455	-1.4224
			CHANNELS 3 Zrotation Yrotation Xrotation
			JOINT mixamorig:Spine2
			{
				OFFSET	0.0001	13.3602	-1.6265
				CHANNELS 3 Zrotation Yrotation Xrotation
				JOINT mixamorig:Neck
				{
					OFFSET	0.0000	15.0325	0.7929
					CHANNELS 3 Zrotation Yrotation Xrotation
					JOINT mixamorig:Head
					{
						OFFSET	-0.0000	10.3218	3.1424
						CHANNELS 3 Zrotation Yrotation Xrotation
						JOINT mixamorig:HeadTop_End
						{
							OFFSET	0.0002	18.4747	6.6364
							CHANNELS 3 Zrotation Yrotation Xrotation
							End Site
							{
								OFFSET 0.0000 0.0000 0.0000
							}
						}
						JOINT mixamorig:LeftEye
						{
							OFFSET	2.9479	7.6817	9.1207
							CHANNELS 3 Zrotation Yrotation Xrotation
							End Site
							{
								OFFSET 0.0000 0.0000 0.0000
							}
						}
						JOINT mixamorig:RightEye
						{
							OFFSET	-2.9445	7.6817	9.1205
							CHANNELS 3 Zrotation Yrotation Xrotation
							End Site
							{
								OFFSET 0.0000 0.0000 0.0000
							}
						}
					}
				}
				JOINT mixamorig:LeftShoulder
				{
					OFFSET	6.1059	9.1104	0.7056
					CHANNELS 3 Zrotation Yrotation Xrotation
					JOINT mixamorig:LeftArm
					{
						OFFSET	12.6532	-0.3431	-2.6009
						CHANNELS 3 Zrotation Yrotation Xrotation
						JOINT mixamorig:LeftForeArm
						{
							OFFSET	27.3517	-0.9645	-1.4034
							CHANNELS 3 Zrotation Yrotation Xrotation
							JOINT mixamorig:LeftHand
							{
								OFFSET	27.5619	-0.7072	1.5500
								CHANNELS 3 Zrotation Yrotation Xrotation
								JOINT mixamorig:LeftHandMiddle1
								{
									OFFSET	12.6630	-1.3962	0.9548
									CHANNELS 3 Zrotation Yrotation Xrotation
									JOINT mixamorig:LeftHandMiddle2
									{
										OFFSET	3.6093	-0.1669	0.0778
										CHANNELS 3 Zrotation Yrotation Xrotation
										JOINT mixamorig:LeftHandMiddle3
										{
											OFFSET	3.4004	-0.6274	0.1148
											CHANNELS 3 Zrotation Yrotation Xrotation
											End Site
											{
												OFFSET 3.6205 -0.6493 0.1199
											}
										}
									}
								}
								JOINT mixamorig:LeftHandThumb1
								{
									OFFSET	3.3268	-2.0474	3.5790
									CHANNELS 3 Zrotation Yrotation Xrotation
									JOINT mixamorig:LeftHandThumb2
									{
										OFFSET	3.4890	-1.4806	2.8548
										CHANNELS 3 Zrotation Yrotation Xrotation
										JOINT mixamorig:LeftHandThumb3
										{
											OFFSET	3.4086	-1.7658	2.1133
											CHANNELS 3 Zrotation Yrotation Xrotation
											End Site
											{
												OFFSET 2.7231 -1.1597 1.7903
											}
										}
									}
								}
								JOINT mixamorig:LeftHandIndex1
								{
									OFFSET	11.9722	-1.1061	3.7324
									CHANNELS 3 Zrotation Yrotation Xrotation
									JOINT mixamorig:LeftHandIndex2
									{
										OFFSET	3.8387	-0.6406	-0.0310
										CHANNELS 3 Zrotation Yrotation Xrotation
										JOINT mixamorig:LeftHandIndex3
										{
											OFFSET	3.3346	-0.7374	-0.0133
											CHANNELS 3 Zrotation Yrotation Xrotation
											End Site
											{
												OFFSET 2.9714 -0.8030 0.0009
											}
										}
									}
								}
								JOINT mixamorig:LeftHandRing1
								{
									OFFSET	12.1659	-1.6805	-1.2769
									CHANNELS 3 Zrotation Yrotation Xrotation
									JOINT mixamorig:LeftHandRing2
									{
										OFFSET	3.5925	-0.2366	-0.0771
										CHANNELS 3 Zrotation Yrotation Xrotation
										JOINT mixamorig:LeftHandRing3
										{
											OFFSET	3.2906	-0.3266	-0.0615
											CHANNELS 3 Zrotation Yrotation Xrotation
											End Site
											{
												OFFSET 3.5423 -0.9211 -0.0200
											}
										}
									}
								}
								JOINT mixamorig:LeftHandPinky1
								{
									OFFSET	11.0508	-2.1872	-3.8040
									CHANNELS 3 Zrotation Yrotation Xrotation
									JOINT mixamorig:LeftHandPinky2
									{
										OFFSET	4.1236	-0.3047	0.1212
										CHANNELS 3 Zrotation Yrotation Xrotation
										JOINT mixamorig:LeftHandPinky3
										{
											OFFSET	2.5805	-0.2597	0.0823
											CHANNELS 3 Zrotation Yrotation Xrotation
											End Site
											{
												OFFSET 2.9027 -0.3379 0.0963
											}
										}
									}
								}
							}
						}
					}
				}
				JOINT mixamorig:RightShoulder
				{
					OFFSET	-6.1057	9.1105	0.7056
					CHANNELS 3 Zrotation Yrotation Xrotation
					JOINT mixamorig:RightArm
					{
						OFFSET	-12.6532	-0.3429	-2.6009
						CHANNELS 3 Zrotation Yrotation Xrotation
						JOINT mixamorig:RightForeArm
						{
							OFFSET	-27.3518	-0.9642	-1.4034
							CHANNELS 3 Zrotation Yrotation Xrotation
							JOINT mixamorig:RightHand
							{
								OFFSET	-27.5619	-0.7068	1.5501
								CHANNELS 3 Zrotation Yrotation Xrotation
								JOINT mixamorig:RightHandMiddle1
								{
									OFFSET	-12.6630	-1.3960	0.9549
									CHANNELS 3 Zrotation Yrotation Xrotation
									JOINT mixamorig:RightHandMiddle2
									{
										OFFSET	-3.6093	-0.1669	0.0778
										CHANNELS 3 Zrotation Yrotation Xrotation
										JOINT mixamorig:RightHandMiddle3
										{
											OFFSET	-3.4004	-0.6273	0.1148
											CHANNELS 3 Zrotation Yrotation Xrotation
											End Site
											{
												OFFSET -3.6205 -0.6492 0.1199
											}
										}
									}
								}
								JOINT mixamorig:RightHandThumb1
								{
									OFFSET	-3.3269	-2.0474	3.5790
									CHANNELS 3 Zrotation Yrotation Xrotation
									JOINT mixamorig:RightHandThumb2
									{
										OFFSET	-3.4890	-1.4805	2.8548
										CHANNELS 3 Zrotation Yrotation Xrotation
										JOINT mixamorig:RightHandThumb3
										{
											OFFSET	-3.4086	-1.7658	2.1133
											CHANNELS 3 Zrotation Yrotation Xrotation
											End Site
											{
												OFFSET -2.7231 -1.1596 1.7903
											}
										}
									}
								}
								JOINT mixamorig:RightHandIndex1
								{
									OFFSET	-11.9722	-1.1059	3.7324
									CHANNELS 3 Zrotation Yrotation Xrotation
									JOINT mixamorig:RightHandIndex2
									{
										OFFSET	-3.8387	-0.6406	-0.0310
										CHANNELS 3 Zrotation Yrotation Xrotation
										JOINT mixamorig:RightHandIndex3
										{
											OFFSET	-3.3346	-0.7373	-0.0133
											CHANNELS 3 Zrotation Yrotation Xrotation
											End Site
											{
												OFFSET -2.9715 -0.8029 0.0009
											}
										}
									}
								}
								JOINT mixamorig:RightHandRing1
								{
									OFFSET	-12.1659	-1.6803	-1.2769
									CHANNELS 3 Zrotation Yrotation Xrotation
									JOINT mixamorig:RightHandRing2
									{
										OFFSET	-3.5925	-0.2366	-0.0771
										CHANNELS 3 Zrotation Yrotation Xrotation
										JOINT mixamorig:RightHandRing3
										{
											OFFSET	-3.2906	-0.3265	-0.0615
											CHANNELS 3 Zrotation Yrotation Xrotation
											End Site
											{
												OFFSET -3.5423 -0.9210 -0.0200
											}
										}
									}
								}
								JOINT mixamorig:RightHandPinky1
								{
									OFFSET	-11.0508	-2.1870	-3.8040
									CHANNELS 3 Zrotation Yrotation Xrotation
									JOINT mixamorig:RightHandPinky2
									{
										OFFSET	-4.1236	-0.3046	0.1212
										CHANNELS 3 Zrotation Yrotation Xrotation
										JOINT mixamorig:RightHandPinky3
										{
											OFFSET	-2.5805	-0.2597	0.0823
											CHANNELS 3 Zrotation Yrotation Xrotation
											End Site
											{
												OFFSET -2.9027 -0.3379 0.0963
											}
										}
									}
								}
							}
						}
					}
				}
			}
		}
	}
	JOINT mixamorig:RightUpLeg
	{
		OFFSET	-9.1245	-6.6564	-0.0554
		CHANNELS 3 Zrotation Yrotation Xrotation
		JOINT mixamorig:RightLeg
		{
			OFFSET	0.0000	-40.5610	-1.7662
			CHANNELS 3 Zrotation Yrotation Xrotation
			JOINT mixamorig:RightFoot
			{
				OFFSET	0.4978	-41.9625	-3.3512
				CHANNELS 3 Zrotation Yrotation Xrotation
				JOINT mixamorig:RightToeBase
				{
					OFFSET	-0.3734	-10.4922	12.6406
					CHANNELS 3 Zrotation Yrotation Xrotation
					End Site
					{
						OFFSET 0.0000 0.0000 9.9925
					}
				}
			}
		}
	}
	JOINT mixamorig:LeftUpLeg
	{
		OFFSET	9.1245	-6.6564	-0.0554
		CHANNELS 3 Zrotation Yrotation Xrotation
		JOINT mixamorig:LeftLeg
		{
			OFFSET	-0.0000	-40.5610	-1.7662
			CHANNELS 3 Zrotation Yrotation Xrotation
			JOINT mixamorig:LeftFoot
			{
				OFFSET	-0.4978	-41.9625	-3.3512
				CHANNELS 3 Zrotation Yrotation Xrotation
				JOINT mixamorig:LeftToeBase
				{
					OFFSET	0.3734	-10.4922	12.6406
					CHANNELS 3 Zrotation Yrotation Xrotation
					End Site
					{
						OFFSET -0.0000 0.0000 9.9925
					}
				}
			}
		}
	}
}
MOTION
Frames: 5
Frame Time: 0.0333333
-4.1389 96.0820 3.1536 0.0543 -8.6687 -9.4895 2.1473 -2.9914 3.4841 0.3018 -5.7054 7.3138 0.3855 -5.6697 7.3340 -0.9139 4.0037 -5.6516 -2.4233 19.0761 -4.2245 0.0000 -0.0000 0.0000 0.0000 -0.0000 0.0000 0.0000 -0.0000 0.0000 -8.5069 -0.5822 1.3723 -66.3269 -45.8957 55.9331 -0.3223 -29.7174 -0.8392 -12.2173 17.9990 -38.2818 -11.4918 -3.3344 0.6271 -0.1055 0.3604 0.0440 -4.2299 -0.1960 0.1123 -1.0716 -4.4624 2.9649 3.5213 -7.7326 -2.4054 -0.6275 -1.3187 1.6245 -4.6701 -5.0072 -0.3295 -4.8979 -0.0411 -0.0356 -1.2937 0.0972 0.0202 -10.4041 -5.7952 0.2946 -5.9915 -0.1396 -0.1241 4.9625 0.5683 0.1884 -10.0171 1.1715 0.8075 -6.2351 -4.2520 0.3330 -3.0514 -0.0887 0.0918 0.3790 15.7718 5.4460 38.3136 16.2852 20.4560 -1.6024 65.9314 -3.3013 14.3354 -33.5151 -22.9166 29.3180 3.6190 2.0688 17.8231 0.2721 0.4986 13.0970 0.5126 0.3971 0.9455 -2.7071 3.2904 -1.7253 -4.8956 -0.0683 1.2094 -3.0864 1.6295 22.5205 5.4600 1.0703 22.6381 0.6421 -0.1296 10.1640 0.1965 -0.0486 28.2761 6.1062 1.7347 23.7249 0.8458 -0.3691 3.9069 -0.2582 -0.0105 27.7247 3.2262 1.9324 24.1041 0.7175 0.8250 11.9179 0.4029 0.3832 3.5188 -2.8057 -9.2716 -5.3646 7.7902 31.2148 3.6358 0.0943 -12.9445 0.0000 -0.0000 -0.0119 11.9987 7.6828 -13.7357 1.9179 8.8985 11.6020 -3.0165 -1.9000 9.8972 0.0000 0.0000 0.0000 
-3.6617 95.9587 3.8182 -0.1419 -11.1377 -9.7500 2.4403 -3.1151 3.4572 0.6619 -6.0052 7.2720 0.7665 -5.9578 7.2972 -1.1304 4.4864 -5.3703 -3.0277 21.2860 -4.0315 0.0000 -0.0000 0.0000 0.0000 -0.0000 0.0000 0.0000 -0.0000 0.0000 -9.0152 -0.3062 1.2986 -65.5572 -46.9264 52.0824 -0.3326 -29.0993 -0.8182 -12.7836 16.0430 -36.4843 -11.5035 -3.3348 0.6280 -0.1182 0.3599 0.0442 -4.2362 -0.1962 0.1125 -1.0705 -4.4871 2.9625 3.5246 -7.7349 -2.4007 -0.6268 -1.3286 1.6233 -4.6818 -5.0077 -0.3287 -4.9106 -0.0415 -0.0357 -1.3000 0.0969 0.0202 -10.4159 -5.7956 0.2956 -6.0042 -0.1401 -0.1243 4.9561 0.5681 0.1882 -10.0288 1.1711 0.8084 -6.2478 -4.2524 0.3343 -3.0578 -0.0890 0.0920 -0.2807 16.3574 5.4688 38.0961 22.7303 20.5698 -1.6444 66.2235 -3.3472 15.3224 -38.1768 -20.5216 29.3180 3.6190 2.0688 17.8231 0.2721 0.4986 13.0970 0.5125 0.3971 0.9634 -3.2864 3.3461 -1.6564 -5.7872 0.0463 1.2406 -3.5335 1.6806 22.5205 5.4600 1.0703 22.6381 0.6421 -0.1296 10.1640 0.1965 -0.0486 28.2761 6.1062 1.7347 23.7248 0.8458 -0.3691 3.9069 -0.2582 -0.0105 27.7247 3.2262 1.9325 24.1041 0.7175 0.8250 11.9179 0.4029 0.3832 3.1920 -1.9888 -9.0345 -3.9172 8.8921 31.8457 3.2754 0.0690 -13.4035 0.0000 0.0000 -0.0168 13.0873 7.7162 -10.8420 1.5195 9.6646 4.4475 -3.6825 -1.7814 12.8406 0.0000 -0.0000 0.0000 
-3.0158 95.7479 4.6779 -0.5544 -13.7581 -9.7463 2.9439 -3.2267 3.3918 1.0243 -6.2827 7.1723 1.1492 -6.2193 7.2056 -1.3095 4.9709 -5.1865 -3.7196 23.5528 -3.9800 0.0000 -0.0000 0.0000 0.0000 -0.0000 0.0000 0.0000 -0.0000 0.0000 -9.6142 0.0619 1.1913 -64.6668 -47.8238 48.4990 -0.3399 -28.6527 -0.8032 -13.1480 14.6977 -35.8240 -11.5151 -3.3351 0.6289 -0.1308 0.3593 0.0445 -4.2425 -0.1965 0.1127 -1.0699 -4.5015 2.9612 3.5258 -7.7357 -2.3990 -0.6265 -1.3320 1.6228 -4.6935 -5.0081 -0.3278 -4.9232 -0.0420 -0.0359 -1.3063 0.0967 0.0201 -10.4275 -5.7959 0.2965 -6.0168 -0.1406 -0.1246 4.9498 0.5679 0.1881 -10.0403 1.1708 0.8093 -6.2605 -4.2529 0.3356 -3.0641 -0.0892 0.0922 -0.5699 16.8023 5.5214 38.6339 28.9548 21.1899 -1.6158 66.0254 -3.3159 16.1742 -40.9977 -18.2078 29.3180 3.6190 2.0688 17.8231 0.2721 0.4986 13.0970 0.5126 0.3971 0.9793 -3.8169 3.3971 -1.5941 -6.6146 0.1519 1.2693 -3.9482 1.7278 22.5205 5.4600 1.0703 22.6381 0.6421 -0.1296 10.1640 0.1965 -0.0486 28.2761 6.1062 1.7347 23.7248 0.8458 -0.3691 3.9069 -0.2582 -0.0105 27.7247 3.2262 1.9325 24.1041 0.7175 0.8250 11.9179 0.4029 0.3832 2.8559 -1.1307 -9.0814 -2.1858 10.0045 32.7555 2.9082 0.0397 -14.0363 -0.0000 0.0000 -0.0237 14.3549 6.8021 -10.0862 1.8640 9.5996 2.3940 -4.0375 0.7932 12.7408 0.0000 0.0000 0.0000 
-2.2655 95.5986 5.6835 -0.8140 -16.3183 -9.4895 3.3425 -3.3114 3.2937 1.3169 -6.5041 7.0068 1.4598 -6.4288 7.0447 -1.4026 5.4089 -5.0824 -4.4428 25.6812 -4.0159 0.0000 -0.0000 0.0000 0.0000 -0.0000 0.0000 0.0000 -0.0000 0.0000 -10.0224 0.4033 1.0822 -64.0290 -48.6997 46.7041 -0.3479 -28.1550 -0.7867 -13.2525 13.3815 -38.2696 -11.5266 -3.3355 0.6298 -0.1432 0.3588 0.0447 -4.2488 -0.1967 0.1129 -1.0696 -4.5066 2.9607 3.5250 -7.7352 -2.4002 -0.6267 -1.3297 1.6231 -4.7050 -5.0086 -0.3270 -4.9357 -0.0424 -0.0360 -1.3125 0.0965 0.0200 -10.4391 -5.7963 0.2973 -6.0293 -0.1410 -0.1248 4.9436 0.5676 0.1879 -10.0518 1.1704 0.8101 -6.2730 -4.2533 0.3369 -3.0703 -0.0895 0.0923 -0.1250 17.1923 5.7083 39.8495 34.5224 22.4858 -1.5522 65.5716 -3.2463 16.6019 -41.8859 -16.5502 29.3180 3.6190 2.0688 17.8231 0.2721 0.4986 13.0970 0.5126 0.3971 0.9929 -4.2845 3.4419 -1.5392 -7.3595 0.2463 1.2947 -4.3216 1.7701 22.5205 5.4600 1.0703 22.6381 0.6421 -0.1296 10.1640 0.1965 -0.0486 28.2761 6.1062 1.7347 23.7249 0.8458 -0.3691 3.9069 -0.2582 -0.0105 27.7247 3.2262 1.9325 24.1041 0.7175 0.8250 11.9179 0.4029 0.3832 2.1664 -0.3517 -9.2566 -0.7045 10.6845 33.3943 2.6423 0.6414 -14.5889 -0.0000 -0.0000 -0.0312 15.2067 5.5244 -10.3756 2.8821 9.4286 3.1414 -4.7672 4.2453 11.6568 -0.0000 0.0000 0.0000 
-1.4279 95.5219 6.8087 -0.9434 -18.7189 -9.0103 3.5422 -3.3469 3.1719 1.5925 -6.6170 6.7836 1.7474 -6.5361 6.8208 -1.4837 5.7959 -4.9695 -5.1769 27.5696 -4.0909 0.0000 -0.0000 0.0000 0.0000 -0.0000 0.0000 0.0000 -0.0000 0.0000 -10.3298 0.6860 0.9881 -63.5517 -49.5359 46.1397 -0.3556 -27.6557 -0.7702 -13.2160 12.2531 -43.0061 -11.5380 -3.3358 0.6307 -0.1555 0.3583 0.0450 -4.2549 -0.1970 0.1131 -1.0698 -4.5034 2.9610 3.5225 -7.7334 -2.4037 -0.6272 -1.3223 1.6240 -4.7164 -5.0090 -0.3261 -4.9480 -0.0428 -0.0361 -1.3187 0.0963 0.0200 -10.4505 -5.7967 0.2982 -6.0416 -0.1415 -0.1251 4.9374 0.5674 0.1878 -10.0631 1.1700 0.8110 -6.2853 -4.2537 0.3381 -3.0765 -0.0897 0.0925 0.3772 17.6479 5.9299 41.6283 38.9708 24.2502 -1.5214 65.3459 -3.2125 16.7957 -41.4673 -15.4030 29.3180 3.6190 2.0688 17.8231 0.2721 0.4986 13.0970 0.5126 0.3971 1.0041 -4.6748 3.4792 -1.4926 -8.0039 0.3275 1.3165 -4.6446 1.8066 22.5205 5.4600 1.0703 22.6381 0.6421 -0.1296 10.1640 0.1965 -0.0486 28.2762 6.1062 1.7347 23.7248 0.8458 -0.3691 3.9069 -0.2582 -0.0105 27.7247 3.2262 1.9325 24.1041 0.7175 0.8250 11.9179 0.4029 0.3832 1.2277 0.1996 -9.5253 -0.2894 10.2738 33.5239 2.6372 2.8750 -14.9591 -0.0000 0.0000 -0.0386 15.4955 5.1634 -10.1043 3.9658 9.3366 3.3037 -6.2706 6.7925 11.8245 0.0000 -0.0000 0.0000 
